<?xml version="1.0" standalone="no"?>
<!DOCTYPE svg PUBLIC "-//W3C//DTD SVG 20010904//EN"
 "http://www.w3.org/TR/2001/REC-SVG-20010904/DTD/svg10.dtd">
<svg version="1.0" xmlns="http://www.w3.org/2000/svg"
 width="2400.000000pt" height="2400.000000pt" viewBox="0 0 2400.000000 2400.000000"
 preserveAspectRatio="xMidYMid meet">

<g transform="translate(0.000000,2400.000000) scale(0.100000,-0.100000)"
fill="#000000" stroke="none">
<path d="M4500 12000 l0 -7500 2339 -2 2339 -3 -3004 -834 c-1652 -459 -3009
-838 -3015 -842 -8 -5 1 -76 30 -244 22 -131 42 -240 45 -242 3 -3 337 -63
743 -134 10216 -1791 12513 -2193 12517 -2188 3 2 185 922 406 2044 220 1122
407 2073 415 2114 9 41 14 76 12 77 -2 2 -264 -151 -583 -340 -318 -188 -1139
-675 -1824 -1081 -1653 -980 -1602 -950 -1610 -948 -4 1 -490 336 -1081 745
-1073 742 -2195 1517 -2533 1750 l-178 123 4991 3 4991 2 0 7500 0 7500 -7500
0 -7500 0 0 -7500z m11820 5646 c620 -70 1030 -218 1381 -500 446 -358 682
-913 655 -1541 -39 -898 -474 -1508 -1313 -1838 -218 -86 -531 -161 -808 -192
-202 -23 -557 -30 -771 -16 -98 7 -187 15 -196 17 -17 5 -18 -53 -18 -1115 l0
-1121 -705 0 -705 0 0 3099 0 3099 23 5 c96 24 593 79 877 97 507 33 1311 36
1580 6z m-8176 -108 c77 -257 596 -2031 638 -2183 132 -480 300 -1192 417
-1770 54 -263 71 -331 84 -333 10 -2 18 5 22 20 3 13 32 145 66 293 69 306
210 877 294 1190 138 514 174 632 653 2120 l238 740 935 3 934 2 159 -3052
c87 -1679 160 -3092 163 -3140 l6 -88 -691 0 -690 0 -6 93 c-7 107 -100 2520
-126 3297 -6 162 -13 586 -17 943 -4 458 -9 647 -17 647 -6 0 -40 -111 -75
-248 -196 -760 -436 -1567 -1019 -3422 l-379 -1205 -566 -3 -566 -2 -12 42
c-6 24 -161 592 -344 1263 -390 1427 -502 1863 -666 2600 -63 279 -189 902
-189 933 0 9 -5 24 -10 32 -22 33 -27 -20 -34 -323 -11 -524 -42 -1321 -76
-1957 -11 -201 -42 -851 -70 -1445 -27 -594 -52 -1117 -56 -1162 l-6 -83 -657
0 -658 0 4 48 c9 106 393 6165 393 6197 l0 35 949 0 950 0 25 -82z m3406
-10698 l0 -470 -2812 2 -2813 3 -3 468 -2 467 2815 0 2815 0 0 -470z"/>
<path d="M15483 16580 c-115 -7 -176 -15 -215 -26 -17 -5 -18 -58 -18 -939 l0
-933 23 -6 c57 -14 367 -28 507 -23 451 18 775 156 972 416 141 186 208 453
180 712 -49 438 -316 698 -807 784 -106 19 -459 27 -642 15z"/>
</g>
</svg>
